<?xml version="1.0" encoding="UTF-8" standalone="no"?>
<!-- Created with Inkscape (http://www.inkscape.org/) -->

<svg
   width="21mm"
   height="21mm"
   viewBox="0 0 21 21"
   version="1.1"
   id="svg5"
   inkscape:version="1.1.2 (b8e25be833, 2022-02-05)"
   sodipodi:docname="userdessin.svg"
   xmlns:inkscape="http://www.inkscape.org/namespaces/inkscape"
   xmlns:sodipodi="http://sodipodi.sourceforge.net/DTD/sodipodi-0.dtd"
   xmlns="http://www.w3.org/2000/svg"
   xmlns:svg="http://www.w3.org/2000/svg">
  <sodipodi:namedview
     id="namedview7"
     pagecolor="#ffffff"
     bordercolor="#666666"
     borderopacity="1.0"
     inkscape:pageshadow="2"
     inkscape:pageopacity="0.0"
     inkscape:pagecheckerboard="0"
     inkscape:document-units="mm"
     showgrid="false"
     inkscape:zoom="4.1877625"
     inkscape:cx="-16.118392"
     inkscape:cy="58.742586"
     inkscape:window-width="1920"
     inkscape:window-height="1017"
     inkscape:window-x="-8"
     inkscape:window-y="-8"
     inkscape:window-maximized="1"
     inkscape:current-layer="layer1" />
  <defs
     id="defs2" />
  <g
     inkscape:label="Calque 1"
     inkscape:groupmode="layer"
     id="layer1">
    <path
       style="fill:#000000;stroke-width:0.264583"
       d="M 10.932919,20.849215 C 9.0645069,20.91697 8.2510057,20.824112 7.1556035,20.418049 6.3877673,20.133415 5.3604082,19.653856 4.8725832,19.352364 4.3847582,19.050872 3.484274,18.26029 2.8715066,17.595516 2.2587396,16.930742 1.464926,15.748023 1.1074767,14.96725 0.75002729,14.186478 0.33977676,12.816243 0.19580882,11.922284 0.0196767,10.828604 0.02367355,9.8064506 0.20802693,8.7976128 0.35871481,7.9730025 0.83812549,6.5714445 1.273384,5.6830398 1.7319462,4.7470697 2.6256434,3.5431202 3.3984362,2.8202629 4.1319568,2.1341405 5.4129169,1.2536734 6.2450145,0.86366953 7.5854839,0.23539175 8.0751938,0.15457133 10.541607,0.15457133 c 2.60435,0 2.895918,0.05525 4.525699,0.85758847 1.052649,0.5182173 2.235678,1.3853598 2.989505,2.1912619 0.686122,0.7335205 1.537692,1.967548 1.892378,2.7422838 0.354686,0.7747357 0.767276,2.0706927 0.916867,2.8799044 0.182455,0.9869917 0.18582,2.0063161 0.01022,3.0966741 -0.143968,0.893959 -0.556558,2.269304 -0.916867,3.056322 -0.360308,0.787018 -1.21837,2.033116 -1.906804,2.769107 -0.779216,0.833046 -1.909771,1.654673 -2.995068,2.176658 -1.483394,0.713453 -2.09847,0.851368 -4.124621,0.924844 z m 0.01447,-1.329592 c 1.269579,-0.06574 2.332141,-0.309806 3.322297,-0.763114 0.800658,-0.366554 1.955006,-1.141399 2.565216,-1.721878 0.706463,-0.672042 1.108534,-1.286542 1.106889,-1.691697 -0.0014,-0.349953 -0.295776,-1.266053 -0.654121,-2.035776 -0.507427,-1.089952 -0.864922,-1.488656 -1.61628,-1.802594 -0.905673,-0.378414 -0.999494,-0.370448 -1.532302,0.130099 -0.312158,0.293257 -1.008595,0.717471 -1.547638,0.942697 -0.539044,0.225227 -1.463978,0.409503 -2.055409,0.409503 -0.5914311,0 -1.5163647,-0.184276 -2.0554077,-0.409503 C 7.941593,12.352134 7.2451559,11.92792 6.9329984,11.634663 6.4001903,11.134116 6.3063693,11.12615 5.4006958,11.504564 c -0.7513574,0.313938 -1.1088527,0.712642 -1.6162793,1.802594 -0.3583451,0.769723 -0.6526993,1.651331 -0.6541209,1.959128 -0.00143,0.307797 0.2265368,0.850912 0.5065744,1.206922 0.2800374,0.35601 1.0003459,0.987684 1.6006858,1.40372 0.6003398,0.416035 1.7106715,0.977585 2.4674036,1.247888 0.9940745,0.355082 1.8938404,0.46464 3.2424316,0.394807 z M 10.536041,11.92853 c 1.129585,0 1.72928,-0.149755 2.38394,-0.595313 0.481083,-0.327422 1.101906,-0.902183 1.379608,-1.277248 0.277702,-0.3750644 0.603533,-1.119205 0.724069,-1.6536456 0.120536,-0.5344406 0.120536,-1.4089801 0,-1.9434207 C 14.903125,5.9244621 14.577294,5.1803214 14.299592,4.8052568 14.02189,4.4301922 13.401067,3.8554307 12.919984,3.5280088 12.265324,3.0824507 11.665629,2.9326963 10.536044,2.9326963 c -1.1295849,0 -1.7292799,0.1497544 -2.3839403,0.5953125 C 7.671021,3.8554307 7.0501977,4.4301922 6.772496,4.8052568 6.4947941,5.1803214 6.1689635,5.9244621 6.0484275,6.4589027 c -0.120536,0.5344406 -0.120536,1.4089801 0,1.9434207 0.120536,0.5344406 0.4463666,1.2785812 0.7240685,1.6536456 0.2777017,0.375065 0.898525,0.949826 1.3796077,1.277248 0.6546604,0.445558 1.2543554,0.595313 2.3839403,0.595313 z"
       id="path827" />
  </g>
</svg>
